<svg width="25" height="24" viewBox="0 0 25 24" fill="none" xmlns="http://www.w3.org/2000/svg">
<path d="M2.75 3H8.75C9.81087 3 10.8283 3.42143 11.5784 4.17157C12.3286 4.92172 12.75 5.93913 12.75 7V21C12.75 20.2044 12.4339 19.4413 11.8713 18.8787C11.3087 18.3161 10.5456 18 9.75 18H2.75V3Z" fill="#305EC4"/>
<path d="M22.75 3H16.75C15.6891 3 14.6717 3.42143 13.9216 4.17157C13.1714 4.92172 12.75 5.93913 12.75 7V21C12.75 20.2044 13.0661 19.4413 13.6287 18.8787C14.1913 18.3161 14.9544 18 15.75 18H22.75V3Z" fill="#1A4DBE"/>
</svg>
