<svg width="25" height="24" viewBox="0 0 25 24" fill="none" xmlns="http://www.w3.org/2000/svg">
<path fill-rule="evenodd" clip-rule="evenodd" d="M21.875 10.1503V17.9668C21.875 20.1943 20.0841 22 17.875 22H7.875C5.66586 22 3.875 20.1943 3.875 17.9668V10.1503C3.875 8.93937 4.41464 7.7925 5.34486 7.02652L10.3449 2.90935C11.8173 1.69689 13.9327 1.69688 15.4051 2.90935L20.4051 7.02652C21.3354 7.7925 21.875 8.93937 21.875 10.1503ZM16.125 17.25V19.5C16.125 20.0523 15.6773 20.5 15.125 20.5H10.625C10.0727 20.5 9.625 20.0523 9.625 19.5V17.25C9.625 15.4551 11.0801 14 12.875 14C14.6699 14 16.125 15.4551 16.125 17.25Z" fill="#A94907"/>
</svg>
