<svg width="18" height="18" viewBox="0 0 18 18" fill="none" xmlns="http://www.w3.org/2000/svg">
<g clip-path="url(#clip0_10314_3021)">
<mask id="path-1-inside-1_10314_3021" fill="white">
<path d="M15.2501 3.44428H13.0973C12.9362 2.66054 12.5097 1.95633 11.8899 1.45034C11.27 0.944344 10.4947 0.667514 9.69456 0.666504L8.30567 0.666504C7.50552 0.667514 6.73019 0.944344 6.11035 1.45034C5.49051 1.95633 5.06407 2.66054 4.90289 3.44428H2.75011C2.56593 3.44428 2.3893 3.51745 2.25906 3.64768C2.12883 3.77791 2.05566 3.95455 2.05566 4.13873C2.05566 4.3229 2.12883 4.49954 2.25906 4.62977C2.3893 4.76 2.56593 4.83317 2.75011 4.83317H3.44455V13.8609C3.44566 14.7815 3.81183 15.664 4.46276 16.315C5.11369 16.9659 5.99622 17.3321 6.91678 17.3332H11.0834C12.004 17.3321 12.8865 16.9659 13.5375 16.315C14.1884 15.664 14.5546 14.7815 14.5557 13.8609V4.83317H15.2501C15.4343 4.83317 15.6109 4.76 15.7412 4.62977C15.8714 4.49954 15.9446 4.3229 15.9446 4.13873C15.9446 3.95455 15.8714 3.77791 15.7412 3.64768C15.6109 3.51745 15.4343 3.44428 15.2501 3.44428ZM8.30567 2.05539H9.69456C10.1253 2.05592 10.5453 2.18968 10.8971 2.43834C11.2488 2.687 11.515 3.03837 11.6591 3.44428H6.34108C6.48524 3.03837 6.75143 2.687 7.10316 2.43834C7.45488 2.18968 7.87492 2.05592 8.30567 2.05539ZM13.1668 13.8609C13.1668 14.4135 12.9473 14.9434 12.5566 15.3341C12.1659 15.7248 11.636 15.9443 11.0834 15.9443H6.91678C6.36424 15.9443 5.83434 15.7248 5.44364 15.3341C5.05294 14.9434 4.83344 14.4135 4.83344 13.8609V4.83317H13.1668V13.8609Z"/>
</mask>
<path d="M15.2501 3.44428H13.0973C12.9362 2.66054 12.5097 1.95633 11.8899 1.45034C11.27 0.944344 10.4947 0.667514 9.69456 0.666504L8.30567 0.666504C7.50552 0.667514 6.73019 0.944344 6.11035 1.45034C5.49051 1.95633 5.06407 2.66054 4.90289 3.44428H2.75011C2.56593 3.44428 2.3893 3.51745 2.25906 3.64768C2.12883 3.77791 2.05566 3.95455 2.05566 4.13873C2.05566 4.3229 2.12883 4.49954 2.25906 4.62977C2.3893 4.76 2.56593 4.83317 2.75011 4.83317H3.44455V13.8609C3.44566 14.7815 3.81183 15.664 4.46276 16.315C5.11369 16.9659 5.99622 17.3321 6.91678 17.3332H11.0834C12.004 17.3321 12.8865 16.9659 13.5375 16.315C14.1884 15.664 14.5546 14.7815 14.5557 13.8609V4.83317H15.2501C15.4343 4.83317 15.6109 4.76 15.7412 4.62977C15.8714 4.49954 15.9446 4.3229 15.9446 4.13873C15.9446 3.95455 15.8714 3.77791 15.7412 3.64768C15.6109 3.51745 15.4343 3.44428 15.2501 3.44428ZM8.30567 2.05539H9.69456C10.1253 2.05592 10.5453 2.18968 10.8971 2.43834C11.2488 2.687 11.515 3.03837 11.6591 3.44428H6.34108C6.48524 3.03837 6.75143 2.687 7.10316 2.43834C7.45488 2.18968 7.87492 2.05592 8.30567 2.05539ZM13.1668 13.8609C13.1668 14.4135 12.9473 14.9434 12.5566 15.3341C12.1659 15.7248 11.636 15.9443 11.0834 15.9443H6.91678C6.36424 15.9443 5.83434 15.7248 5.44364 15.3341C5.05294 14.9434 4.83344 14.4135 4.83344 13.8609V4.83317H13.1668V13.8609Z" fill="#12295E"/>
<path d="M13.0973 3.44428L-7.7987 7.7416L-4.2952 24.7776H13.0973V3.44428ZM9.69456 0.666504L9.72149 -20.6668L9.70802 -20.6668H9.69456V0.666504ZM8.30567 0.666504V-20.6668H8.2922L8.27874 -20.6668L8.30567 0.666504ZM4.90289 3.44428V24.7776H22.2954L25.7989 7.7416L4.90289 3.44428ZM2.05566 4.13873H-19.2777H2.05566ZM3.44455 4.83317H24.7779V-16.5002H3.44455V4.83317ZM3.44455 13.8609H-17.8888V13.8737L-17.8888 13.8865L3.44455 13.8609ZM6.91678 17.3332L6.89122 38.6665L6.904 38.6665H6.91678V17.3332ZM11.0834 17.3332V38.6665H11.0962L11.109 38.6665L11.0834 17.3332ZM14.5557 13.8609L35.889 13.8865L35.889 13.8737V13.8609H14.5557ZM14.5557 4.83317V-16.5002H-6.77766V4.83317H14.5557ZM9.69456 2.05539L9.72058 -19.2779L9.70757 -19.2779H9.69456V2.05539ZM11.6591 3.44428V24.7776H41.8742L31.7623 -3.69521L11.6591 3.44428ZM6.34108 3.44428L-13.7621 -3.69521L-23.874 24.7776H6.34108V3.44428ZM13.1668 13.8609H34.5001H13.1668ZM11.0834 15.9443V37.2776V15.9443ZM6.91678 15.9443V37.2776V15.9443ZM4.83344 4.83317V-16.5002H-16.4999V4.83317H4.83344ZM13.1668 4.83317H34.5001V-16.5002H13.1668V4.83317ZM15.2501 3.44428V-17.8891H13.0973V3.44428V24.7776H15.2501V3.44428ZM13.0973 3.44428L33.9934 -0.853037C32.8437 -6.44343 29.8019 -11.4666 25.3806 -15.0758L11.8899 1.45034L-1.60082 17.9764C-4.78244 15.3792 -6.97138 11.7645 -7.7987 7.7416L13.0973 3.44428ZM11.8899 1.45034L25.3806 -15.0758C20.9593 -18.685 15.4289 -20.6596 9.72149 -20.6668L9.69456 0.666504L9.66763 21.9998C5.56053 21.9946 1.58079 20.5737 -1.60082 17.9764L11.8899 1.45034ZM9.69456 0.666504V-20.6668H8.30567V0.666504V21.9998H9.69456V0.666504ZM8.30567 0.666504L8.27874 -20.6668C2.57136 -20.6596 -2.95905 -18.685 -7.38034 -15.0758L6.11035 1.45034L19.601 17.9764C16.4194 20.5737 12.4397 21.9946 8.3326 21.9998L8.30567 0.666504ZM6.11035 1.45034L-7.38034 -15.0758C-11.8016 -11.4666 -14.8435 -6.44344 -15.9931 -0.853037L4.90289 3.44428L25.7989 7.7416C24.9716 11.7645 22.7827 15.3792 19.601 17.9764L6.11035 1.45034ZM4.90289 3.44428V-17.8891H2.75011V3.44428V24.7776H4.90289V3.44428ZM2.75011 3.44428V-17.8891C-3.09203 -17.8891 -8.69487 -15.5683 -12.8259 -11.4373L2.25906 3.64768L17.344 18.7326C13.4735 22.6032 8.22389 24.7776 2.75011 24.7776V3.44428ZM2.25906 3.64768L-12.8259 -11.4373C-16.9569 -7.30626 -19.2777 -1.70341 -19.2777 4.13873H2.05566H23.389C23.389 9.61251 21.2145 14.8621 17.344 18.7326L2.25906 3.64768ZM2.05566 4.13873H-19.2777C-19.2777 9.98086 -16.9569 15.5837 -12.8259 19.7147L2.25906 4.62977L17.344 -10.4552C21.2145 -6.58464 23.389 -1.33506 23.389 4.13873H2.05566ZM2.25906 4.62977L-12.8259 19.7147C-8.69487 23.8457 -3.09203 26.1665 2.75011 26.1665V4.83317V-16.5002C8.22389 -16.5002 13.4735 -14.3257 17.344 -10.4552L2.25906 4.62977ZM2.75011 4.83317V26.1665H3.44455V4.83317V-16.5002H2.75011V4.83317ZM3.44455 4.83317H-17.8888V13.8609H3.44455H24.7779V4.83317H3.44455ZM3.44455 13.8609L-17.8888 13.8865C-17.8809 20.4561 -15.2676 26.7545 -10.6222 31.3999L4.46276 16.315L19.5477 1.23001C22.8913 4.5736 24.7722 9.10685 24.7779 13.8354L3.44455 13.8609ZM4.46276 16.315L-10.6222 31.3999C-5.97672 36.0454 0.321593 38.6586 6.89122 38.6665L6.91678 17.3332L6.94233 -4.00015C11.6709 -3.99449 16.2041 -2.11358 19.5477 1.23001L4.46276 16.315ZM6.91678 17.3332V38.6665H11.0834V17.3332V-4.00017H6.91678V17.3332ZM11.0834 17.3332L11.109 38.6665C17.6786 38.6586 23.9769 36.0454 28.6224 31.3999L13.5375 16.315L-1.54748 1.23001C1.79612 -2.11359 6.32937 -3.99449 11.0579 -4.00015L11.0834 17.3332ZM13.5375 16.315L28.6224 31.3999C33.2679 26.7545 35.8811 20.4561 35.889 13.8865L14.5557 13.8609L-6.77765 13.8354C-6.77199 9.10686 -4.89108 4.5736 -1.54748 1.23001L13.5375 16.315ZM14.5557 13.8609H35.889V4.83317H14.5557H-6.77766V13.8609H14.5557ZM14.5557 4.83317V26.1665H15.2501V4.83317V-16.5002H14.5557V4.83317ZM15.2501 4.83317V26.1665C21.0922 26.1665 26.6951 23.8457 30.8261 19.7147L15.7412 4.62977L0.656223 -10.4552C4.52677 -14.3257 9.77635 -16.5002 15.2501 -16.5002V4.83317ZM15.7412 4.62977L30.8261 19.7147C34.9571 15.5837 37.2779 9.98082 37.2779 4.13873H15.9446H-5.38877C-5.38877 -1.33502 -3.21435 -6.58461 0.656223 -10.4552L15.7412 4.62977ZM15.9446 4.13873H37.2779C37.2779 -1.70337 34.9571 -7.30624 30.8261 -11.4373L15.7412 3.64768L0.656223 18.7326C-3.21435 14.8621 -5.38877 9.61247 -5.38877 4.13873H15.9446ZM15.7412 3.64768L30.8261 -11.4373C26.6951 -15.5683 21.0922 -17.8891 15.2501 -17.8891V3.44428V24.7776C9.77635 24.7776 4.52677 22.6032 0.656223 18.7326L15.7412 3.64768ZM8.30567 2.05539V23.3887H9.69456V2.05539V-19.2779H8.30567V2.05539ZM9.69456 2.05539L9.66853 23.3887C5.69725 23.3839 1.82469 22.1506 -1.41807 19.8581L10.8971 2.43834L23.2122 -14.9814C19.266 -17.7713 14.5534 -19.272 9.72058 -19.2779L9.69456 2.05539ZM10.8971 2.43834L-1.41807 19.8581C-4.66083 17.5656 -7.11501 14.3261 -8.44406 10.5838L11.6591 3.44428L31.7623 -3.69521C30.145 -8.24933 27.1584 -12.1916 23.2122 -14.9814L10.8971 2.43834ZM11.6591 3.44428V-17.8891H6.34108V3.44428V24.7776H11.6591V3.44428ZM6.34108 3.44428L26.4443 10.5838C25.1152 14.3261 22.6611 17.5656 19.4183 19.8581L7.10316 2.43834L-5.21198 -14.9814C-9.15819 -12.1916 -12.1448 -8.24933 -13.7621 -3.69521L6.34108 3.44428ZM7.10316 2.43834L19.4183 19.8581C16.1755 22.1506 12.303 23.3839 8.33169 23.3887L8.30567 2.05539L8.27964 -19.2779C3.44686 -19.272 -1.26576 -17.7713 -5.21198 -14.9814L7.10316 2.43834ZM13.1668 13.8609H-8.16655C-8.16655 8.75553 -6.13844 3.85921 -2.52835 0.249132L12.5566 15.3341L27.6415 30.419C32.033 26.0276 34.5001 20.0714 34.5001 13.8609H13.1668ZM12.5566 15.3341L-2.52835 0.249132C1.08173 -3.36095 5.97804 -5.38906 11.0834 -5.38906V15.9443V37.2776C17.2939 37.2776 23.25 34.8105 27.6415 30.419L12.5566 15.3341ZM11.0834 15.9443V-5.38906H6.91678V15.9443V37.2776H11.0834V15.9443ZM6.91678 15.9443V-5.38906C12.0222 -5.38906 16.9185 -3.36095 20.5286 0.249132L5.44364 15.3341L-9.6413 30.419C-5.24982 34.8105 0.706303 37.2776 6.91678 37.2776V15.9443ZM5.44364 15.3341L20.5286 0.249132C24.1387 3.85921 26.1668 8.75552 26.1668 13.8609H4.83344H-16.4999C-16.4999 20.0714 -14.0328 26.0276 -9.6413 30.419L5.44364 15.3341ZM4.83344 13.8609H26.1668V4.83317H4.83344H-16.4999V13.8609H4.83344ZM4.83344 4.83317V26.1665H13.1668V4.83317V-16.5002H4.83344V4.83317ZM13.1668 4.83317H-8.16655V13.8609H13.1668H34.5001V4.83317H13.1668Z" fill="#12295E" mask="url(#path-1-inside-1_10314_3021)"/>
<path d="M8.30566 12.4722L8.29199 12.6079C8.26532 12.7414 8.20023 12.8657 8.10254 12.9634L7.99707 13.0493C7.88372 13.125 7.74964 13.1665 7.61133 13.1665L7.47559 13.1528C7.38655 13.1351 7.30211 13.0997 7.22656 13.0493L7.12012 12.9634C7.02242 12.8657 6.95733 12.7414 6.93066 12.6079L6.91699 12.4722V8.30518C6.91702 8.12104 6.98991 7.94417 7.12012 7.81396C7.25033 7.68376 7.42719 7.61087 7.61133 7.61084C7.79546 7.61084 7.97232 7.6838 8.10254 7.81396C8.23275 7.94417 8.30564 8.12104 8.30566 8.30518V12.4722Z" fill="#12295E" stroke="#12295E" stroke-width="21.3333"/>
<path d="M11.083 12.4722L11.0693 12.6079C11.0427 12.7414 10.9776 12.8657 10.8799 12.9634L10.7744 13.0493C10.6611 13.125 10.527 13.1665 10.3887 13.1665L10.2529 13.1528C10.1639 13.1351 10.0795 13.0997 10.0039 13.0493L9.89746 12.9634C9.79976 12.8657 9.73468 12.7414 9.70801 12.6079L9.69434 12.4722V8.30518C9.69436 8.12104 9.76725 7.94417 9.89746 7.81396C10.0277 7.68376 10.2045 7.61087 10.3887 7.61084C10.5728 7.61084 10.7497 7.6838 10.8799 7.81396C11.0101 7.94417 11.083 8.12104 11.083 8.30518V12.4722Z" fill="#12295E" stroke="#12295E" stroke-width="21.3333"/>
</g>
<defs>
<clipPath id="clip0_10314_3021">
<rect width="16.6667" height="16.6667" fill="white" transform="translate(0.666992 0.666504)"/>
</clipPath>
</defs>
</svg>
