<svg width="39" height="38" viewBox="0 0 39 38" fill="none" xmlns="http://www.w3.org/2000/svg">
<g clip-path="url(#clip0_9992_5214)">
<path d="M37.9683 18.9999C37.9683 19.2811 37.9594 19.5593 37.9468 19.8375C38.1019 18.4552 38.0848 17.0945 37.82 15.7055C37.7087 15.2982 37.5981 14.8908 37.4868 14.4843C37.5239 14.2995 37.4126 13.9663 37.2279 13.5219C37.0431 12.9669 36.8947 12.3741 36.6358 11.8191C35.9695 10.3017 35.1184 8.85791 34.082 7.56246C33.0825 6.34119 31.9718 5.23047 30.7134 4.30521C30.6622 4.26362 30.6073 4.2303 30.5554 4.18944C35.0553 7.56695 37.9683 12.9455 37.9683 18.9999ZM14.4354 1.99951C14.4204 2.00393 14.4057 2.00952 14.3916 2.01625C14.402 2.01625 14.4173 2.00987 14.4354 1.99951ZM36.9689 19.037C36.9318 19.0741 36.9318 19.1482 36.9318 19.1853C37.006 19.1482 37.006 19.1111 36.9689 19.037ZM17.0923 19.1111C17.1026 19.1016 17.1004 19.0982 17.1005 19.0938V19.0926C17.0999 19.0883 17.0954 19.0818 17.0936 19.077L17.0924 19.0763L17.0923 19.1111ZM36.8583 21.11C36.8583 21.2584 36.8583 21.6279 36.9325 21.7392C36.9689 21.2206 36.9325 20.6656 36.8954 20.1106C36.8583 20.4067 36.8583 20.814 36.8583 21.11ZM16.501 5.23271C16.4997 5.23141 16.4997 5.22924 16.4992 5.22743C16.4981 5.22859 16.4987 5.23032 16.501 5.23271Z" fill="#2A7900"/>
<path d="M37.1915 14.4464C37.1173 14.1132 37.0067 13.7801 36.9326 13.484C36.451 12.2257 35.3039 10.301 35.2297 10.3381C35.1185 10.4123 36.0808 11.8555 36.155 12.0409C36.1921 12.1522 36.1921 12.1151 36.155 12.078C36.5253 12.8919 36.8955 13.7066 37.1915 14.5206L37.1915 14.4464ZM11.2078 8.11813V8.14117C11.2152 8.12038 11.2182 8.10705 11.2078 8.11813ZM17.056 5.67486C17.1302 5.60068 17.0189 5.67486 16.9818 5.67486C16.9447 5.74905 17.0189 5.71195 17.056 5.67486ZM14.724 6.26695C14.6869 6.19277 14.6498 6.19277 14.5756 6.22986C14.5386 6.26695 14.6498 6.22986 14.724 6.26695ZM27.3962 3.29462C27.3915 3.28629 27.3867 3.27876 27.382 3.26941C27.3781 3.26941 27.3837 3.27876 27.3962 3.29462ZM29.3919 3.38887C29.1463 3.23246 28.8971 3.08183 28.6444 2.93711C28.7058 2.97355 28.767 3.01013 28.8259 3.04679C29.0202 3.15437 29.2042 3.27383 29.3919 3.38887ZM28.2843 2.73535C28.4053 2.80113 28.5251 2.86865 28.6443 2.93711C28.526 2.86692 28.406 2.79964 28.2843 2.73535ZM29.3919 3.38887C29.7607 3.6241 30.122 3.86889 30.4722 4.12861C30.125 3.8615 29.7645 3.61664 29.3919 3.38887ZM16.0566 4.52778C16.1678 4.49068 16.2784 4.49068 16.3897 4.37941C16.2414 4.45359 16.13 4.4165 16.0566 4.52778ZM37.1173 18.2964C37.0802 18.4077 37.0431 18.5191 37.0802 18.5925C37.0802 18.5183 37.1544 18.4441 37.1173 18.2964ZM37.0802 22.0344C37.1173 22.516 36.9326 22.9604 36.8955 23.4783C37.0802 23.2565 37.1173 22.4418 37.1173 22.1458C37.1173 22.1086 37.1173 22.0715 37.0802 22.0344ZM36.4881 23.997C36.5252 23.997 36.5623 23.9599 36.5994 23.9599C36.5994 23.9599 36.5994 23.9228 36.6365 23.8857C36.5994 23.8857 36.4139 23.997 36.4881 23.997ZM37.3763 19.1482C37.4134 19.0369 37.3763 18.9634 37.3392 18.8893C37.0803 19.0369 37.1545 19.5548 37.1545 19.8145C37.3763 19.5926 37.3028 19.4814 37.3763 19.1482ZM36.8577 21.7392C36.6729 21.8497 36.6729 21.8497 36.6729 22.0352C36.7099 21.9239 36.8213 21.8504 36.8577 21.7392ZM5.76624 19.629C5.72915 19.5548 5.76624 19.6661 5.76624 19.629V19.629ZM11.6137 7.75091L11.6168 7.74953C11.6161 7.74917 11.6152 7.74939 11.6137 7.75091ZM7.06177 15.5949C7.03062 15.6261 7.02692 15.7247 7.02612 15.7812C7.09958 15.8539 7.17304 15.891 7.2465 15.891C7.32141 15.8168 7.13595 15.5207 7.06177 15.5949ZM6.58095 14.5213C6.50677 14.5584 6.6915 14.5213 6.58095 14.5213V14.5213Z" fill="#2A7900"/>
<path d="M7.02307 15.8161C7.0238 15.8161 7.0238 15.8168 7.02459 15.8168C7.02459 15.8109 7.02611 15.7916 7.02611 15.7812L7.02459 15.7797C7.02459 15.7842 7.0238 15.7976 7.02307 15.8161ZM11.7628 16.2613C11.6886 16.2242 11.8733 16.2613 11.7628 16.2613V16.2613ZM9.87522 5.08287C9.98649 5.04578 10.5044 4.49078 10.3931 4.37951C10.356 4.30532 9.98577 4.49078 9.94867 4.52787C9.81806 4.56055 10.0221 4.64364 10.0489 4.61321C10.0347 4.58431 10.0392 4.55605 10.0963 4.52787C10.1675 4.52787 10.1646 4.56424 10.0666 4.63248C10.0978 4.72224 9.97903 4.9048 9.91231 4.9716C9.91231 5.00869 9.87522 5.04578 9.87522 5.08287ZM12.6138 31.4739C12.4661 31.4739 12.688 31.3626 12.6138 31.4739V31.4739ZM9.72678 4.9716C9.68968 5.00869 9.68968 5.04578 9.6155 5.11996C9.72678 5.11996 9.76387 5.08287 9.72678 4.9716ZM10.2447 3.93506C10.2076 3.93506 10.1705 3.97215 10.1334 4.00924C10.1712 4.00924 10.2083 4.00924 10.2447 3.93506ZM10.356 5.82333C10.2447 5.89751 10.8739 5.97169 10.8375 5.9346C11.0222 6.00879 11.0593 5.71278 10.9859 5.60143C10.764 5.30542 10.6156 5.52725 10.2454 5.63852C10.097 5.67561 9.98649 5.78689 9.83805 5.86035C9.94867 5.97097 10.2083 5.89679 10.356 5.82333Z" fill="#2A7900"/>
<path d="M10.06 4.63839C10.0645 4.63542 10.063 4.6347 10.0674 4.63173C10.0645 4.62209 10.0674 4.60869 10.06 4.6013C10.0645 4.61021 10.0534 4.60949 10.0497 4.61318C10.0541 4.6213 10.0519 4.63021 10.06 4.63839ZM27.952 3.01455C27.9473 3.01296 27.9425 3.01137 27.9378 3.00977L27.952 3.01455ZM15.4026 4.32449C15.4115 4.31891 15.4199 4.31275 15.4275 4.30522C15.4167 4.31246 15.4089 4.31869 15.4026 4.32449Z" fill="#2A7900"/>
<path d="M36.7433 24.5499C36.4473 25.1791 36.2254 25.8454 35.9294 26.4745C35.8181 26.7335 35.5591 26.8819 35.4479 27.1408C35.3373 27.4005 35.1889 27.6965 34.967 27.9184C34.5604 28.3257 34.3008 28.9549 33.7829 29.2509C33.5239 29.3993 33.1537 29.3622 32.9319 29.5841C32.7842 29.2509 33.1537 28.7694 33.265 28.4734C33.3763 27.9555 33.3392 27.4746 33.561 26.9932C33.9313 26.0679 33.5239 25.0315 33.9313 24.1433C34.0797 23.773 34.2281 23.477 34.4128 23.1438C34.5983 22.8478 34.5241 22.2928 34.5612 21.9226C34.6354 21.4788 34.4499 20.8126 34.2652 20.4052C34.191 20.2568 33.7102 19.5905 33.8949 19.4058C34.1909 19.1839 34.0797 17.9248 33.7466 17.74C33.5618 17.6659 33.2658 17.999 33.1174 17.74C33.0061 17.5553 33.0061 17.2963 32.7842 17.1851C32.4882 17.0367 31.4524 17.7771 31.304 17.74C31.0443 17.6288 30.7854 17.5917 30.5265 17.6659C30.2297 17.74 30.0449 17.999 29.7489 17.8142C29.5635 17.74 29.4529 17.5924 29.3045 17.444C28.9342 17.148 28.4535 16.9624 28.3421 16.4445C28.2309 16.0372 27.6759 15.9637 27.6388 15.5193C27.2685 15.8153 27.3056 15.0755 27.2685 14.9643C27.0467 14.5569 27.1201 14.4464 27.2314 14.0019C27.4161 13.1501 26.4167 12.4104 27.1572 11.6699C27.3056 11.5223 27.0838 11.2262 27.3056 11.1149C27.4169 11.0407 27.4169 10.9302 27.4169 10.8189C27.4169 10.5971 27.8977 10.4857 28.009 10.2639C28.1202 9.93074 27.8606 9.67182 27.9719 9.30156C28.009 9.1161 28.2308 9.1161 28.305 8.93129C28.3421 8.82002 28.2679 8.48685 28.3792 8.44975C28.601 8.37557 29.1197 8.8942 29.3416 8.48685C29.4899 8.26502 29.8231 8.19084 30.082 8.11658C30.2304 8.07949 31.0444 7.96821 31.1186 8.0424C31.2298 8.15367 31.6372 8.41266 31.563 8.70867C31.4517 9.04105 32.2293 9.11523 32.414 9.18949C32.6358 9.26367 32.7101 9.55975 32.969 9.55975C33.1545 9.55975 33.2279 9.70739 33.3764 9.78157C33.6361 9.92922 33.0804 8.78213 33.4877 9.07821C33.7466 9.26367 34.1168 9.44847 34.45 9.52266C34.45 9.4492 34.4871 9.41211 34.5242 9.33792C34.7468 9.26374 34.8945 9.56055 34.6355 9.07901C34.5613 8.96846 34.0063 7.85774 33.8579 7.93192C33.7837 7.96901 33.895 8.0432 33.8579 8.08029C33.7837 8.11665 33.6361 7.85766 33.599 7.93192C33.599 7.93192 33.6361 8.0432 33.6361 8.08029C33.5619 8.15447 32.6366 7.26637 32.5996 7.11793C32.6366 7.11793 32.7108 7.08084 32.7479 7.08084C32.7479 7.00666 32.7108 6.96957 32.6737 6.93247C32.7108 6.89538 32.7479 6.89538 32.785 6.89538C32.7479 6.82192 32.7479 6.74774 32.785 6.67356C32.8585 6.59937 33.1545 6.89538 33.2658 6.89538C33.1916 6.52512 32.5254 6.04438 32.2293 5.89594C32.1922 5.93303 32.2293 6.00721 32.2293 6.0443C32.1551 5.93303 31.9704 5.93303 31.9333 5.74822C32.0075 5.82241 32.0809 5.8595 32.1922 5.8595C32.2664 5.78531 31.8962 5.48923 31.859 5.45214C31.859 5.5256 31.859 5.59978 31.8961 5.67397C31.7856 5.74815 31.7114 5.59978 31.6372 5.59978C31.7848 6.0417 32.2975 6.66595 32.6673 6.89111C32.6327 6.89401 32.4621 7.04368 32.5624 7.04368C32.3777 7.04368 32.3406 7.11786 32.2664 7.11786C32.2664 7.34048 32.673 7.45103 32.7843 7.5994C32.8577 7.71067 32.8948 7.89548 32.969 8.04385C32.8214 8.00676 32.4511 7.67358 32.4511 7.67358C32.3398 7.67358 31.8961 7.15568 31.8219 7.0444C31.6001 6.78469 31.5258 6.71123 31.2669 6.56286C30.8967 6.3774 30.5265 6.00786 30.1933 5.89659C29.9715 5.82241 30.3046 6.22976 30.3046 6.22976C30.4893 6.37813 30.7119 6.48868 30.8967 6.63712C31.1927 6.85894 31.6371 6.89603 31.8961 7.22921C31.8219 7.15502 31.7485 7.15502 31.6372 7.11793C31.6372 7.26557 31.8961 7.45111 31.9332 7.67293C31.9332 7.71002 32.0074 8.0061 32.0074 8.0432C31.9339 8.0432 31.4524 7.82137 31.4895 7.74719C31.5266 7.673 32.0445 7.78428 31.8227 7.48827C31.6372 7.26644 31.4153 7.1188 31.1564 6.97036C30.749 6.74774 30.2683 6.34118 29.8238 6.19282C29.9351 6.74781 29.1205 6.34118 29.1947 6.56308C29.1947 6.63726 29.5649 6.89625 29.2688 6.97044C29.0834 7.00753 29.1576 7.15517 29.1205 7.30361C29.1205 7.37779 29.4907 7.8957 29.1947 7.96988C28.9357 8.04334 29.3794 8.15461 28.8615 8.15461C28.6389 8.15461 28.5655 8.41433 28.417 8.30298C28.1581 8.11825 28.1581 8.15534 27.862 8.11825C27.7144 8.08188 27.7144 8.08188 27.6773 7.93351C27.6031 7.74806 27.3813 7.74806 27.4184 7.52616C27.4184 7.23015 27.2337 7.1188 27.1595 6.85989C27.1595 6.82279 26.8263 6.45253 27.1595 6.48962C27.3078 6.48962 28.2331 6.67508 28.3073 6.52671C28.6033 6.08226 27.2707 5.45308 27.0489 5.3789C27.1973 5.30472 27.3457 5.34181 27.5305 5.34181C27.4934 5.23126 27.4192 5.19417 27.3821 5.15707C27.3821 5.15707 27.9742 5.23126 27.7153 4.93525C27.7153 4.93525 27.7894 4.41734 27.7894 4.45443C27.7894 4.30679 28.1597 4.2697 28.0113 4.19552C27.6781 4.01078 27.5305 3.86234 27.4563 3.56634C27.6781 3.7147 28.0113 4.23261 28.3073 4.23261C28.4186 4.23261 28.6775 4.23261 28.7146 4.15843C28.8994 3.9366 28.7888 4.15843 29.0478 4.12133C29.0107 3.86242 28.567 3.71398 28.5299 3.52924C28.6034 3.52924 28.6405 3.60343 28.7517 3.60343C28.7517 3.56634 27.9371 3.12189 28.3444 3.19607C28.492 3.01061 28.0484 2.8629 27.937 2.82581C28.0105 2.89927 28.0847 2.93636 28.1588 3.01054C27.6031 3.45426 26.9739 2.30718 26.4189 2.27009C26.456 2.41773 26.8998 2.71381 27.011 2.82508C27.2337 3.01054 27.5668 3.04771 27.7886 3.23244C28.0112 3.45506 28.1588 3.71398 28.2701 3.9358C28.1709 4.10163 27.505 3.43355 27.3961 3.29474C27.4285 3.35176 27.4609 3.38957 27.4933 3.45426C27.382 3.52772 27.2715 3.26881 27.1601 3.3059C26.9754 3.41717 27.3085 3.6027 26.8641 3.45426C26.5681 3.34299 26.0502 3.00982 26.0131 2.71381C25.976 2.56617 25.3097 1.75145 25.2356 1.82571C25.4574 1.52963 26.531 1.93698 26.8271 2.12172C26.8271 2.15881 26.79 2.12172 26.79 2.15881C26.79 2.1959 27.3086 2.41773 27.4934 2.45482C27.4563 2.41773 27.1602 2.27009 27.1602 2.1959C27.2344 2.30718 27.7523 2.45482 27.8636 2.52907C28.0062 2.593 28.1465 2.66186 28.2844 2.73554C25.6611 1.30759 22.6568 0.493164 19.4614 0.493164C9.24609 0.493164 0.95459 8.78387 0.95459 19C0.95459 29.2161 9.24609 37.5068 19.4614 37.5068C29.3963 37.5068 37.509 29.665 37.9476 19.8377C37.929 20.0024 37.9187 20.1671 37.8911 20.3304C37.4096 21.8106 37.3354 23.1432 36.7433 24.5499ZM33.9335 8.34022C34.0077 8.37659 34.0448 8.45077 34.0448 8.52495C33.9343 8.48786 33.8972 8.4144 33.9335 8.34022ZM33.4156 8.45149C33.3415 8.48858 33.3044 8.52568 33.3044 8.48858C33.2309 8.4144 33.1196 8.48858 33.0825 8.34022C33.1937 8.37731 33.3051 8.37731 33.4156 8.45149ZM30.6028 7.52623C30.4916 7.71096 30.2697 7.23022 30.1213 7.15597C30.1955 7.11887 30.2326 7.08178 30.2697 7.04469C30.381 7.04469 30.6399 7.45205 30.6028 7.52623ZM29.9737 6.6745C30.0471 6.60032 30.1955 6.93342 30.1955 6.97051C30.1584 6.93342 29.8623 6.74868 29.9737 6.6745ZM29.567 7.52623C29.5299 7.52623 29.4928 7.52623 29.4557 7.48914C29.2702 7.45205 29.7147 7.34077 29.567 7.52623ZM25.0136 3.5278C25.0507 3.56489 25.0878 3.56489 25.0507 3.63907C25.0507 3.63907 25.0878 3.67616 25.0878 3.71325C25.0507 3.71325 24.9394 3.52852 25.0136 3.5278ZM22.83 1.04889C22.8961 1.04889 22.7563 1.0783 22.7514 1.08467C22.5305 1.01194 22.2728 1.01129 22.0524 0.937539C22.3113 0.90052 22.6445 1.01107 22.83 1.04889ZM22.2742 2.38071C22.3855 2.34362 23.3479 2.45417 23.0147 2.60253C22.7558 2.71381 22.3855 2.86145 22.1637 2.63963C22.0895 2.60326 21.7934 2.45489 21.7563 2.45489C21.7563 2.34362 22.2008 2.38071 22.2742 2.38071ZM16.5396 1.0867C16.9833 0.827786 17.8714 0.790694 18.353 0.827786C18.908 0.901969 19.4637 0.716511 19.9816 0.827786C20.2034 0.827786 20.3889 0.864877 20.6108 0.864877C20.7955 0.901969 20.5737 1.0867 20.7955 1.12379C20.9061 1.12379 21.165 1.41988 21.2763 1.38271C21.2763 1.56745 21.165 1.45689 21.2392 1.64163C21.2392 1.678 21.4981 1.82636 21.461 1.82636C21.424 1.86345 20.8319 1.82636 20.869 1.82636C20.8319 1.82636 20.869 1.93764 20.9061 1.90055C21.0166 1.93764 21.2755 1.90055 21.424 1.90055C21.1272 2.19735 20.6464 2.16026 20.3132 2.38208C20.0906 2.52973 19.7946 2.49264 19.5728 2.60391C19.5728 2.82653 19.388 3.12254 19.2396 3.38146C19.1283 3.45564 18.3514 3.08545 18.2773 2.9741C18.0918 2.78937 17.7215 2.23437 18.1289 2.08593C18.6468 1.90047 18.1289 2.04884 17.9805 1.93756C18.0918 1.75211 18.2402 1.82629 18.425 1.86338C18.3137 1.71501 18.2031 1.67792 18.0547 1.75211C18.0176 1.60374 18.2765 1.4561 18.0547 1.30766C17.9805 1.23348 17.4255 1.30766 17.4255 1.23348C17.3892 1.01165 18.0918 1.1222 18.2031 0.937467C17.6852 0.826192 17.1294 1.34482 16.6486 1.27064H16.3525C16.3526 1.15944 16.6858 1.15944 16.5396 1.0867ZM16.501 1.30708C16.3897 1.41835 16.1678 1.41835 15.8718 1.38126C15.9824 1.38126 15.7976 1.30708 15.7234 1.34417C16.0565 1.12235 16.13 1.27071 16.501 1.30708ZM15.7234 1.2329C15.7234 1.2329 15.6129 1.45552 15.5387 1.38126C15.5016 1.34417 15.4645 1.38126 15.4274 1.34417C15.5008 1.19653 15.6122 1.23362 15.7234 1.2329ZM15.0193 1.56679C15.1676 1.45552 15.3153 1.45552 15.4637 1.45552C15.3161 1.5297 15.2048 1.56679 15.0193 1.56679ZM15.0572 1.56679C15.0201 1.60388 15.0201 1.60388 14.983 1.60388C14.983 1.56679 15.0201 1.56679 15.0572 1.56679ZM15.2797 1.26999C15.1684 1.34417 15.2055 1.30708 15.2426 1.26999C15.0943 1.34417 14.9466 1.30708 14.7982 1.34417C15.0201 1.19653 15.0943 1.19653 15.2797 1.26999ZM5.65494 19.7034C5.61785 19.6663 5.61785 19.4074 5.65494 19.3702C5.69203 19.4444 5.72912 19.5549 5.76622 19.6291C5.76622 19.7034 5.72912 19.7405 5.65494 19.7034ZM5.91465 19.5921C5.84047 19.4445 5.87756 19.7776 5.91465 19.5921V19.5921ZM12.9855 33.1026C12.8743 32.9542 13.1703 32.7694 12.8743 32.6952C12.6888 32.6581 12.763 32.7687 12.763 32.5469C12.7259 32.1766 12.5412 32.1024 12.8372 32.1766C12.8001 32.1766 12.8743 31.3998 12.5783 31.5845C12.8372 31.8434 12.5412 31.9548 12.5412 31.8805C12.5412 31.5845 12.1709 30.6592 12.0967 30.5851C12.0596 30.5109 12.1338 30.3632 12.1338 30.2519C12.0967 29.9558 12.0967 29.6227 12.1338 29.3266C12.1338 29.1419 11.9862 28.92 11.912 28.7716C11.8378 28.6233 11.9862 28.5498 11.8749 28.4014C11.6894 28.1795 11.912 27.7351 11.8007 27.4761C11.6152 27.1058 11.6894 26.588 11.6523 26.1806C11.6523 25.5151 11.245 24.9965 10.69 24.7005C9.98662 24.3302 9.57926 23.8865 9.28318 23.146C9.13482 22.6274 8.57982 21.7764 8.17246 21.4061C7.91275 21.2207 8.3572 20.2954 8.3572 20.2954C8.09828 20.1107 8.06119 20.0736 8.17246 19.7033C8.20955 19.5557 8.32083 19.3709 8.28374 19.2225C8.28374 19.1854 8.54265 19.0377 8.57975 18.9264C8.61684 18.7409 9.17184 18.3343 8.9871 18.1859C8.83874 18.0012 9.09838 17.5197 8.9871 17.2978C8.91292 17.1495 8.76448 16.5574 8.54265 16.5574C8.24665 16.5945 8.28374 17.1866 8.1353 17.1124C7.95057 17.0382 7.80213 16.7421 7.5803 16.6679C7.43193 16.6308 7.43193 16.2977 7.21228 16.1938C7.21228 16.2309 7.21228 16.268 7.17519 16.3051C7.0127 16.4023 7.02161 15.9571 7.02603 15.8228C6.76856 15.7471 6.80493 15.3049 6.73074 15.1943C6.62019 15.0831 6.0281 15.1202 5.87974 14.8612C5.76846 14.6764 5.69428 14.3062 5.47238 14.232C5.21346 14.1949 5.17637 14.4546 4.91738 14.3062C4.80611 14.232 4.13983 13.677 4.13983 13.5286C4.13983 13.3068 3.80666 13.01 4.06565 12.8253C4.06565 12.7882 4.13983 12.4921 4.17693 12.455C4.32529 11.9 4.02928 11.2701 4.25111 10.7522C4.32457 10.6416 4.51003 9.6051 4.47293 9.56801C4.21322 9.45673 3.88084 11.9735 3.73248 12.0847C3.84303 11.5297 3.73248 10.9747 3.99139 10.5303C4.17613 10.3448 4.21322 9.97457 4.28748 9.75274C4.39875 9.45673 4.62065 9.16065 4.58348 8.82748C4.58348 8.38303 6.39757 6.23577 6.91548 5.75503C7.84074 4.82905 8.72884 4.05222 9.83956 3.34886C10.5058 2.9415 11.2092 2.57131 11.9126 2.23814C12.2087 2.08977 12.5418 1.97922 12.875 1.86787C13.0597 2.01551 12.8379 2.01551 12.7637 2.0897C12.9121 2.16388 13.0597 2.12679 13.1711 2.01551C13.0969 1.79369 14.0963 1.38633 14.4294 1.38633C14.356 1.46052 14.2818 1.46052 14.2447 1.49761C14.3182 1.57179 14.3923 1.49761 14.4665 1.49761C14.3552 1.64525 13.3558 2.05261 13.3558 2.05261C13.43 2.23806 13.985 1.86787 14.1333 1.86787C14.0963 2.01551 13.9115 1.97842 13.8373 2.05261C14.1905 2.11643 14.3493 1.70907 14.6743 1.6475C14.6299 1.65339 14.5849 1.65263 14.5407 1.64525C14.6883 1.5347 14.8731 1.49761 15.0215 1.46052C14.9132 1.54216 14.8242 1.62229 14.6973 1.64525C14.7433 1.63847 14.79 1.63872 14.836 1.64597C14.7722 1.70973 14.5453 1.93655 14.4354 1.9995C14.496 1.98016 14.5609 1.97915 14.6505 1.97915C14.6134 2.0897 14.4287 2.05261 14.3916 2.20097C14.6134 2.0897 14.8732 2.05261 15.095 1.8678C15.0579 1.83071 15.0579 1.79362 15.0208 1.75653C15.2063 1.60888 15.4652 1.49761 15.7242 1.46052C15.5758 1.57107 15.4652 1.60816 15.391 1.71943C15.6128 1.64597 15.7613 1.49761 16.0202 1.5347C16.0202 1.60888 15.946 1.60888 15.9089 1.68307C16.0202 1.68307 16.0936 1.68307 16.2049 1.60888C16.1678 1.57179 16.1307 1.60888 16.0936 1.57179C16.1678 1.5347 16.2784 1.49761 16.3525 1.5347C16.2784 1.79362 16.5009 1.75653 16.6857 1.86787C16.8334 1.97842 16.426 2.01551 16.5374 2.0897C16.6486 2.20025 16.8705 2.20025 16.9818 2.31152C16.9454 2.38498 16.5752 2.57044 16.501 2.53335C16.4639 2.53335 16.0936 2.16308 16.1678 2.49626C16.2784 2.86652 16.2784 2.97707 15.7605 2.71808C15.7605 2.75517 15.9459 2.93991 15.9088 2.977C15.8717 3.05046 15.3538 2.90282 15.3538 2.82863C15.2425 2.53262 14.7988 2.71808 14.7617 2.60681C14.7617 2.6439 16.3904 2.23654 15.7241 1.86635C15.6128 1.79217 15.0578 1.9769 14.9836 2.12527C14.9094 2.27291 14.7239 2.31 14.5392 2.34709H14.2432C14.1697 2.42128 14.3174 2.68027 14.3545 2.71736C14.2061 2.82863 13.7995 2.75445 13.6511 2.75445C13.7245 2.68027 13.8358 2.71736 13.8729 2.60608C13.6875 2.49481 12.688 2.97555 12.5033 3.0869C11.9846 3.34661 11.9846 3.49425 11.7257 3.82735C11.7999 3.90081 12.1331 3.75317 12.096 4.01209C12.096 4.15973 12.5768 4.23391 12.6139 4.23391C12.5033 4.34519 12.4292 4.45574 12.355 4.56709C12.3921 4.60418 12.5033 4.56709 12.5033 4.64127C12.467 4.71545 12.3928 4.67836 12.3186 4.60418C12.2073 4.78891 12.2815 5.01153 12.5033 4.93735C12.726 4.82608 12.7623 4.67764 12.9107 4.4929C13.1325 4.15973 13.6141 4.19689 13.7988 3.82663C13.9101 3.6048 13.6141 3.64117 13.9472 3.45637C14.0955 3.38218 14.2432 3.16036 14.3545 3.01192C14.5763 2.71591 15.095 3.15956 15.2798 3.23374C14.7982 3.90002 15.6871 3.49266 15.9461 3.30793C16.0202 3.90002 16.1308 4.12264 16.6123 4.34446C16.5752 4.41865 16.5381 4.38156 16.5011 4.41865C16.5752 4.41865 16.9084 4.56629 16.8342 4.67756C16.7697 4.80666 16.6955 4.87121 16.6124 4.91199C16.6532 4.89048 16.7074 4.88157 16.7971 4.89939C16.7613 4.93518 16.4854 5.17692 16.4993 5.2272C16.5145 5.20938 16.8713 5.30906 16.8713 5.34384C17.2045 5.23256 16.9826 5.49148 17.1673 5.52857C17.1673 5.56566 17.1673 6.19484 16.9084 5.89884C16.9455 5.86174 16.9455 5.82465 16.9455 5.78756C16.8342 5.75047 16.5752 5.89884 16.5011 5.89884C16.5011 5.82465 16.6123 5.86174 16.6123 5.78756C16.5011 5.71338 15.8348 5.75047 15.8348 5.71338C15.8348 5.67701 15.909 5.60283 15.9832 5.52864L16.4736 5.03819C16.4914 5.02928 16.5196 5.01074 16.5011 5.01074C16.5359 4.97589 16.5634 4.9417 16.6012 4.91873C16.4491 4.9885 16.2681 4.98103 16.0566 5.12201C15.6863 5.38173 15.0572 5.19619 14.6127 5.23329C14.2061 5.27038 13.7617 5.71483 13.3914 5.93665C13.8359 5.93665 14.2062 5.34456 14.7611 5.45584C15.0943 5.5293 14.4651 5.67766 14.3908 5.67766C14.4643 5.75184 14.5385 5.78894 14.6126 5.75185C14.7239 5.89949 14.3908 6.23266 14.9458 6.23266C15.2418 6.23266 15.2418 5.93665 15.4637 5.93665L15.5379 6.12138C15.4266 6.3803 14.4643 6.52874 14.1683 6.71347C13.9094 6.86184 14.2795 6.30684 14.5014 6.23266V6.19557C14.0941 6.34394 13.6504 6.56583 13.2431 6.64002C12.9842 6.67638 12.8357 6.93602 12.8728 7.15792C12.6502 7.2692 12.3913 7.23211 12.1694 7.30629C12.2429 7.34338 12.28 7.30629 12.3542 7.34338C12.1327 7.49102 11.8022 7.67445 11.6168 7.74936C11.6329 7.75784 11.4275 8.25959 11.3919 8.04675C11.3548 7.93547 11.3548 7.75074 11.5032 7.71357C11.2814 7.71357 11.3919 8.08384 11.17 7.97249C11.17 8.00886 11.3918 8.19431 11.2071 8.15722V8.1431C11.1878 8.19431 11.1329 8.30486 11.1329 8.30486C11.1329 8.34123 11.2442 8.37832 11.2071 8.4896C11.1707 8.60087 11.0224 8.52669 11.0224 8.63797C11.0965 8.56378 11.1336 8.63797 11.1336 8.71215C11.0595 8.82342 10.8005 8.93397 10.6892 9.00816C10.356 9.19289 10.0229 9.41551 9.72683 9.67443C9.31948 10.0076 9.24602 11.6362 9.09765 11.6362C8.98638 11.6362 9.02347 11.4885 8.94929 11.4143C8.83874 11.3038 9.02347 10.0454 8.72746 10.2302C8.54273 10.3407 8.3572 10.156 8.13537 10.1189C8.13537 10.1189 7.58037 10.0818 7.58037 10.156C7.58037 10.1931 7.72802 10.2302 7.76511 10.2302L7.72802 10.452C7.61674 10.4883 7.39484 10.4149 7.32066 10.3036C7.24648 10.1923 6.83984 10.3778 6.76566 10.2665C6.83984 10.3407 6.28485 10.6368 6.24776 10.6739C6.0623 10.8593 6.02593 11.3401 5.87749 11.4514C5.32177 11.7846 5.50723 12.7477 5.47013 13.2284C5.39595 13.6358 5.80331 13.71 6.09932 13.5616C6.21059 13.4874 6.32114 13.6729 6.39532 13.5245C6.46951 13.3761 6.58006 13.3027 6.65424 13.1542C6.7277 13.0059 7.35688 12.3767 7.50525 12.7098C7.54234 12.784 7.17208 13.4866 7.09789 13.635C6.98734 13.635 6.91316 13.7834 6.91316 14.0424C6.91316 14.0424 6.61715 14.6345 6.87607 14.4498C6.98734 14.3385 8.02388 14.4127 7.9126 14.6716C7.65369 15.2637 7.43179 16.0412 7.9497 16.5591C8.2457 16.8551 8.43123 16.3365 8.65306 16.4108C8.91198 16.5213 9.17097 16.6326 9.24515 16.9287C9.35643 16.9287 9.72669 15.7074 9.94851 16.0406C10.022 15.93 10.7253 15.4856 10.7995 15.5227C10.7253 15.4856 10.7253 16.1148 10.6512 16.1889C10.2817 16.5221 11.0585 16.7439 10.7995 16.2631C10.6512 16.0042 10.8366 15.9299 11.0584 15.8558C11.1697 15.8187 11.0955 15.6339 11.1697 15.5968C11.1697 15.6339 11.5029 15.8558 11.54 15.8558C11.7989 16.0034 11.5029 16.1518 11.9473 16.0776C12.2805 16.0034 12.4652 16.3736 12.7612 16.1147C12.9831 15.9292 13.2428 16.1147 13.4275 16.0405C13.3541 16.0776 13.2799 16.1147 13.2057 16.0776C13.2428 16.3002 13.7978 16.3373 13.7607 16.522C13.7236 16.7068 13.9083 16.7068 14.0196 16.7439C14.2793 16.8551 14.2793 17.0407 14.4641 17.2254C14.6124 17.373 15.0198 17.7062 15.2788 17.5214C15.5377 17.373 16.5742 17.7803 16.5742 18.1135C16.6477 18.0393 17.0921 19.0016 17.0921 19.0388V19.0736C17.0921 19.0743 17.0931 19.0756 17.0934 19.0766C17.0959 19.0783 17.0978 19.0806 17.0991 19.0834C17.1003 19.0861 17.1007 19.0892 17.1002 19.0922V19.0944C17.1218 19.2123 17.3629 19.4491 17.6107 19.5196C17.6841 20.0004 17.7954 19.593 18.1286 19.7043C18.277 19.7414 18.6836 19.852 18.7949 19.9632C18.8691 20.0374 18.832 20.3335 18.8691 20.3335C18.8691 20.3335 19.0909 20.2222 19.0538 20.2593C19.1651 20.1117 19.4241 20.2964 19.4982 20.2964C19.7201 20.3706 19.9798 20.2964 20.2016 20.3335C20.609 20.3706 20.8308 20.7779 21.164 20.9627C21.5713 21.1845 21.719 20.8885 21.8673 21.4435C21.9786 21.8138 21.9415 22.1839 21.6826 22.4429C21.4237 22.7389 20.905 23.3682 20.7202 23.4424C20.3871 23.5529 20.6831 25.2557 20.2758 25.5889C19.8684 25.9221 19.9426 26.6618 19.3505 26.477C19.2763 26.4399 18.9068 26.6617 18.7955 26.6988C18.4623 26.8465 18.1663 26.9949 17.9074 27.2538C17.6113 27.5135 17.8703 27.9943 17.5743 28.3275C17.5743 28.3275 16.9822 29.1043 16.8709 29.2527C16.8338 29.2156 16.8338 29.1785 16.7967 29.1785C16.7225 29.2898 16.537 29.3633 16.6483 29.5117C16.6483 29.4004 16.7225 29.3633 16.7967 29.3633C16.8709 29.4375 16.612 29.7336 16.5749 29.7336C16.3894 29.9191 16.2789 29.7336 16.1304 29.8449C15.9457 29.9562 15.6125 29.6972 15.4642 29.6602C15.4271 29.8449 15.945 30.1417 16.0192 30.3264C16.2418 30.9185 14.9826 30.8443 14.7979 30.8814C14.7979 30.992 14.9833 31.2509 14.9463 31.3622C14.835 31.6212 14.4283 31.251 14.3171 31.3622C14.2429 31.4357 14.576 31.8431 14.6131 31.8801C14.576 31.9543 14.5018 32.3246 14.4647 32.3246C14.3163 32.2875 14.1315 32.5093 14.3163 32.6578C14.4276 32.732 14.5753 32.732 14.6866 32.8061C14.9455 32.9545 14.464 33.1029 14.5753 33.2877C14.7237 33.5466 14.2422 33.3982 14.6866 33.8056C14.1487 33.8375 14.5278 34.0838 14.6502 34.1551C14.645 34.1469 14.674 34.1388 14.7237 34.0645C14.6873 34.0274 14.5761 34.1016 14.539 34.0274C14.4284 33.7314 14.9834 34.1016 14.9834 34.0645C15.1681 34.175 15.4642 34.175 15.5755 34.2863C15.5013 34.2863 15.3166 34.3605 15.2423 34.3605C14.7979 34.2863 14.1687 34.3234 13.7984 33.9532C13.502 33.7318 13.1695 33.4357 12.9855 33.1026ZM15.3532 2.23307C15.3903 2.12179 15.4644 2.12179 15.6492 2.12179C15.575 2.23307 15.4637 2.23307 15.3532 2.23307ZM14.2061 2.93571C14.169 2.9728 14.1319 3.00989 14.0577 3.04698C14.0948 2.9728 14.1683 2.93571 14.2061 2.93571ZM14.0206 2.82443C13.9094 2.89861 13.8359 2.93571 13.7245 2.93571C13.8351 2.86225 13.9094 2.86225 14.0206 2.82443ZM14.7578 5.89999C14.7651 5.91731 14.9494 6.00823 14.983 6.00823C15.0201 6.04532 15.0572 6.00823 15.0943 6.00823C14.9131 6.22563 14.6964 5.946 14.7578 5.89999ZM14.983 5.2677C15.1684 5.2677 15.279 5.30479 15.4274 5.41606C15.2419 5.45323 15.0943 5.37897 14.983 5.2677ZM13.5391 16.2615C13.5391 16.2615 13.6133 16.0388 13.7238 16.0396C13.9093 16.1502 13.6133 16.2615 13.5391 16.2615ZM12.6138 13.6705C11.837 13.3002 12.392 14.2255 12.6138 13.6705V13.6705ZM9.57847 13.1889C9.39373 13.226 9.68974 13.0413 9.68974 13.0042C9.57847 12.7082 8.72739 12.671 8.6532 12.4492C8.6903 12.4492 8.72739 12.4121 8.72739 12.375C8.43138 12.2637 8.28294 12.5968 8.02402 12.5968C8.57975 11.6716 9.8752 12.7445 10.4302 13.1518C10.1342 13.1518 9.83818 13.1518 9.57847 13.1889ZM9.72683 13.781C9.68974 13.9287 9.28239 13.7439 9.2453 13.6697C9.39366 13.5956 9.50421 13.6327 9.65265 13.7068C9.68974 13.7068 9.72683 13.7068 9.72683 13.781ZM8.43138 12.5968C8.43138 12.671 8.39429 12.7081 8.32011 12.671C8.32011 12.6339 8.43138 12.4856 8.43138 12.5968ZM9.74821 11.9978C9.68033 11.8186 9.62614 11.8061 9.76393 11.6345C9.80102 11.8199 9.80102 11.8934 9.76393 12.0048C9.76393 11.9776 9.74437 11.9707 9.74821 11.9978ZM10.7997 13.5956C10.6892 13.4108 10.7997 13.3366 10.5779 13.2624C10.7634 13.0035 11.4668 13.2995 11.6515 13.4108C11.6515 13.4479 11.5774 13.4108 11.5774 13.4479C11.5774 13.4479 12.0218 13.8181 11.7257 13.7068C11.3926 13.5584 11.2071 13.7431 10.9853 13.8915C10.7998 13.6326 10.5037 13.818 10.2819 13.7068C10.1342 13.6334 10.7263 13.6334 10.7997 13.5956ZM14.724 31.8071C14.724 31.9548 14.428 31.7329 14.6498 31.6958C14.6869 31.6958 14.724 31.7329 14.724 31.8071ZM23.2759 36.9875C22.3136 37.2093 21.3142 37.3207 20.3148 37.3578C18.4265 37.4319 16.4647 37.2836 14.6513 36.7286C14.874 36.7657 15.17 36.8769 15.3918 36.8399C15.1692 36.6922 14.8732 36.7293 14.6884 36.5809C15.4282 36.6922 16.1686 36.6551 16.872 36.7293C16.7979 36.618 16.1687 36.4704 16.1687 36.4333C16.2429 36.4333 16.7608 36.3962 16.7608 36.3962C16.9826 36.2115 16.3905 36.2486 16.4648 36.1002C16.4648 36.0631 16.6495 36.1373 16.6866 36.0631C16.7608 35.9525 16.6866 35.8784 16.7237 35.8042C16.7608 35.7678 17.6489 35.5824 17.7602 35.6194C17.6497 35.6929 17.5384 35.6194 17.5755 35.8042C17.4642 35.8042 17.2052 35.8042 17.1681 35.9155C17.1681 35.8784 17.4642 36.3228 17.5013 36.3228C17.6118 36.4705 17.9821 36.5817 18.0192 36.8036C18.0934 37.1368 19.8333 37.0996 20.0923 37.0625C20.7586 36.9884 21.3506 36.7665 21.9798 36.6552C22.3493 36.5817 22.7566 36.4705 23.1269 36.4334C23.3116 36.4334 23.9037 36.2115 24.0522 36.2486C24.1256 36.5446 25.5324 36.1374 25.8655 36.2115C25.8654 36.2856 23.5334 36.9148 23.2759 36.9875ZM25.4588 4.74979C25.3475 4.63852 25.4217 4.37953 25.1628 4.30534C25.2362 4.26825 25.3104 4.26825 25.3475 4.23116C25.162 3.82453 25.7541 4.30534 25.8283 4.37953C26.1614 4.7127 25.6428 4.93453 25.4588 4.74979ZM26.4946 5.08296C26.4204 4.86114 26.6793 4.86114 26.68 4.82477C26.68 4.78768 26.3469 4.75059 26.3098 4.75059C26.3832 4.75059 26.1985 4.49167 26.1614 4.41742C26.1985 4.41742 26.2727 4.41742 26.3098 4.38032C26.2727 4.26905 25.7177 3.93588 25.6806 3.97297C25.458 4.08424 25.2361 3.52924 25.199 3.45506C25.5322 3.41797 25.754 3.78744 26.0872 3.93588C26.3461 4.04643 27.3085 4.52797 27.3456 4.82405C27.3827 4.97169 26.6058 4.89823 26.4946 5.08296Z" fill="#2A7900"/>
<path d="M14.2054 34.0278C14.2795 33.9907 14.2795 33.9907 14.2424 33.9536C14.1683 33.9907 14.1319 33.9907 14.2054 34.0278ZM13.5391 33.6576C13.502 33.6576 13.502 33.6947 13.5391 33.7318C13.6133 33.6947 13.6133 33.6947 13.5391 33.6576ZM13.0583 28.624C12.947 28.624 13.1695 28.587 13.0583 28.624V28.624ZM14.6869 34.1762C14.6869 34.1762 14.6713 34.168 14.6505 34.1554C14.6535 34.1591 14.6624 34.1636 14.6869 34.1762ZM12.6138 13.6705C12.4662 13.6334 12.5767 13.7439 12.6138 13.6705V13.6705ZM27.9601 3.01735C27.9825 3.02481 28.007 3.03299 27.9601 3.01735V3.01735ZM15.7969 2.41779C15.8711 2.3807 15.9453 2.41779 16.0187 2.34361C15.9082 2.27015 15.8711 2.27015 15.7969 2.41779ZM13.3543 4.37959C13.2802 4.41669 13.206 4.41668 13.1325 4.45378C13.2802 4.49087 13.2802 4.49087 13.3543 4.37959ZM15.5379 2.60332H15.6492C15.6492 2.60332 15.6863 2.45489 15.5379 2.60332ZM13.8351 2.49198C13.9093 2.45489 13.9093 2.41779 13.8351 2.41779C13.7609 2.45489 13.7609 2.45489 13.8351 2.49198ZM14.0948 2.45489C14.0206 2.45489 13.9835 2.45489 13.9464 2.49198C13.7988 2.56623 14.1319 2.52907 14.0948 2.45489ZM15.5758 4.3788C15.538 4.34243 15.5009 4.30534 15.4274 4.30534C15.4602 4.37235 15.3436 4.37865 15.4026 4.32461C15.3239 4.37409 15.1981 4.36119 15.1313 4.52724C15.2055 4.41589 15.5758 4.41589 15.5758 4.3788ZM13.2802 5.12005C13.2861 5.11411 13.3017 5.10447 13.315 5.09556C13.3009 5.13193 13.1696 5.31297 13.5391 4.97168C13.5391 4.97168 13.3869 5.04884 13.315 5.09556C13.3194 5.08448 13.315 5.0852 13.2802 5.12005ZM14.428 5.00877C14.3166 4.97168 14.5385 5.00877 14.428 5.00877V5.00877ZM13.9835 4.00933C13.9464 3.97224 13.9464 3.93515 13.9093 3.97224C13.9464 4.04642 13.9464 4.04642 13.9835 4.00933ZM10.7634 5.30478C10.8376 5.37897 10.9481 5.19351 10.9481 5.15642C10.911 5.08296 10.7263 5.26769 10.7634 5.30478ZM11.2078 2.86224C11.1707 2.82515 10.9489 2.97352 10.8746 3.01061C10.8376 3.0477 10.8005 3.0477 10.7634 3.12188C10.8005 3.08407 11.3184 2.97279 11.2078 2.86224ZM10.0978 6.3406C10.0607 6.37769 9.61628 7.00687 9.69046 7.08105C9.72755 7.11814 10.5786 6.23005 10.6899 6.15579C10.9859 5.97106 10.727 6.52605 10.6157 6.60024C10.6892 6.56315 10.7634 6.48896 10.8005 6.52605C10.8376 6.59951 10.8005 6.6737 10.7263 6.74788C10.8739 6.71079 11.2071 6.41471 11.2071 6.22997C11.4297 6.52678 11.5403 6.15651 11.3184 6.04524C10.9852 5.93396 10.3931 6.1195 10.0978 6.3406ZM11.282 6.15659C11.2078 6.19368 11.1707 6.19368 11.1707 6.1195C11.1707 6.1195 11.3184 6.0824 11.282 6.15659ZM10.4274 7.09177C10.4282 7.08851 10.4287 7.0854 10.4302 7.08178C10.4276 7.08707 10.427 7.09003 10.4274 7.09177ZM10.8376 3.34306C10.8376 3.24852 10.5131 3.42383 10.3959 3.47664C10.522 3.43709 10.8376 3.37573 10.8376 3.34306ZM10.3959 3.47664C10.3822 3.48062 10.3689 3.48556 10.356 3.49142C10.3614 3.49142 10.376 3.48555 10.3959 3.47664Z" fill="#2A7900"/>
<path d="M10.4275 7.09161C10.3883 7.25453 11.1707 6.97033 11.1707 6.97033C11.0224 7.00743 11.1336 6.97033 11.1707 6.97033C11.2449 6.93324 11.3191 6.89615 11.3926 6.82197C11.2442 6.82197 10.6892 6.85906 10.615 6.89615C10.684 6.86167 10.4335 7.11522 10.4275 7.09161ZM11.282 6.71142C11.4296 6.85906 12.4662 6.63723 11.7999 6.56305C11.6152 6.52589 11.4296 6.56298 11.282 6.71142ZM11.6886 2.45472C11.8734 2.41763 12.1331 2.34344 12.2807 2.1958C12.0588 2.23289 11.8734 2.34344 11.6886 2.45472ZM11.7257 6.04514C11.7257 6.00805 11.6886 6.00805 11.6515 6.04514C11.6886 6.08224 11.6886 6.08224 11.7257 6.04514Z" fill="#2A7900"/>
</g>
<defs>
<clipPath id="clip0_9992_5214">
<rect width="37.0909" height="37.0909" fill="white" transform="translate(0.95459 0.45459)"/>
</clipPath>
</defs>
</svg>
