<svg width="25" height="24" viewBox="0 0 25 24" fill="none" xmlns="http://www.w3.org/2000/svg">
<path d="M12.345 2H11.905C11.3746 2 10.8659 2.21071 10.4908 2.58579C10.1157 2.96086 9.905 3.46957 9.905 4V4.18C9.90464 4.53073 9.81206 4.87519 9.63654 5.17884C9.46102 5.48248 9.20874 5.73464 8.905 5.91L8.475 6.16C8.17096 6.33554 7.82608 6.42795 7.475 6.42795C7.12393 6.42795 6.77904 6.33554 6.475 6.16L6.325 6.08C5.86607 5.81526 5.32084 5.74344 4.809 5.88031C4.29717 6.01717 3.86055 6.35154 3.595 6.81L3.375 7.19C3.11026 7.64893 3.03845 8.19416 3.17531 8.706C3.31217 9.21783 3.64654 9.65445 4.105 9.92L4.255 10.02C4.55728 10.1945 4.80862 10.4451 4.98405 10.7468C5.15948 11.0486 5.2529 11.391 5.255 11.74V12.25C5.2564 12.6024 5.16465 12.949 4.98905 13.2545C4.81344 13.5601 4.56021 13.8138 4.255 13.99L4.105 14.08C3.64654 14.3456 3.31217 14.7822 3.17531 15.294C3.03845 15.8058 3.11026 16.3511 3.375 16.81L3.595 17.19C3.86055 17.6485 4.29717 17.9828 4.809 18.1197C5.32084 18.2566 5.86607 18.1847 6.325 17.92L6.475 17.84C6.77904 17.6645 7.12393 17.5721 7.475 17.5721C7.82608 17.5721 8.17096 17.6645 8.475 17.84L8.905 18.09C9.20874 18.2654 9.46102 18.5175 9.63654 18.8212C9.81206 19.1248 9.90464 19.4693 9.905 19.82V20C9.905 20.5304 10.1157 21.0391 10.4908 21.4142C10.8659 21.7893 11.3746 22 11.905 22H12.345C12.8754 22 13.3841 21.7893 13.7592 21.4142C14.1343 21.0391 14.345 20.5304 14.345 20V19.82C14.3454 19.4693 14.4379 19.1248 14.6135 18.8212C14.789 18.5175 15.0413 18.2654 15.345 18.09L15.775 17.84C16.079 17.6645 16.4239 17.5721 16.775 17.5721C17.1261 17.5721 17.471 17.6645 17.775 17.84L17.925 17.92C18.3839 18.1847 18.9292 18.2566 19.441 18.1197C19.9528 17.9828 20.3895 17.6485 20.655 17.19L20.875 16.8C21.1397 16.3411 21.2116 15.7958 21.0747 15.284C20.9378 14.7722 20.6035 14.3356 20.145 14.07L19.995 13.99C19.6898 13.8138 19.4366 13.5601 19.261 13.2545C19.0854 12.949 18.9936 12.6024 18.995 12.25V11.75C18.9936 11.3976 19.0854 11.051 19.261 10.7455C19.4366 10.4399 19.6898 10.1862 19.995 10.01L20.145 9.92C20.6035 9.65445 20.9378 9.21783 21.0747 8.706C21.2116 8.19416 21.1397 7.64893 20.875 7.19L20.655 6.81C20.3895 6.35154 19.9528 6.01717 19.441 5.88031C18.9292 5.74344 18.3839 5.81526 17.925 6.08L17.775 6.16C17.471 6.33554 17.1261 6.42795 16.775 6.42795C16.4239 6.42795 16.079 6.33554 15.775 6.16L15.345 5.91C15.0413 5.73464 14.789 5.48248 14.6135 5.17884C14.4379 4.87519 14.3454 4.53073 14.345 4.18V4C14.345 3.46957 14.1343 2.96086 13.7592 2.58579C13.3841 2.21071 12.8754 2 12.345 2Z" fill="#A94907"/>
<path d="M12.125 15C13.7819 15 15.125 13.6569 15.125 12C15.125 10.3431 13.7819 9 12.125 9C10.4681 9 9.125 10.3431 9.125 12C9.125 13.6569 10.4681 15 12.125 15Z" fill="#A94907" stroke="white" stroke-width="1.5" stroke-linecap="round" stroke-linejoin="round"/>
</svg>
