<svg width="25" height="24" viewBox="0 0 25 24" fill="none" xmlns="http://www.w3.org/2000/svg">
<path fill-rule="evenodd" clip-rule="evenodd" d="M10.593 4.16592C11.4786 2.61136 13.7714 2.61136 14.657 4.16592L22.3291 17.6324C23.1899 19.1433 22.0695 21 20.2971 21H4.95289C3.18046 21 2.0601 19.1433 2.92087 17.6324L10.593 4.16592ZM13.6249 17C13.6249 17.5523 13.1772 18 12.6249 18C12.0727 18 11.6249 17.5523 11.6249 17C11.6249 16.4477 12.0727 16 12.6249 16C13.1772 16 13.6249 16.4477 13.6249 17ZM13.3749 9C13.3749 8.58579 13.0392 8.25 12.6249 8.25C12.2107 8.25 11.8749 8.58579 11.8749 9V14C11.8749 14.4142 12.2107 14.75 12.6249 14.75C13.0392 14.75 13.3749 14.4142 13.3749 14V9Z" fill="#A94907"/>
</svg>
